<?xml version="1.0" encoding="UTF-8"?> <svg xmlns="http://www.w3.org/2000/svg" width="1201" height="183" viewBox="0 0 1201 183" fill="none"><path d="M79.75 173.5C65.25 178.25 51.75 181 37.5 181C13.5 181 -7.07805e-07 174.75 -7.07805e-07 168.75C-7.07805e-07 163 9 158.75 26.5 158.75C46.75 158.75 65.5 162.25 84.75 167.25C106.5 157.25 127.75 134.75 152.25 101C144.25 103.5 133.75 105 121.75 105C80.75 105 58.75 85 58.75 59.75C58.75 35.25 79.75 14 119 2.99999L120 5.24999C83.5 18.25 64.5 40.75 64.5 63C64.5 85.25 85.5 101.75 121 101.75C135.75 101.75 147.5 99.75 155.5 96.5C200 32 236 -3.09944e-06 261.25 -3.09944e-06C269.75 -3.09944e-06 274 3.74999 274 11.5C274 33.5 238.75 68.5 169 95.5C143.25 129.5 121 155.25 89.75 169.25C105 174 116.75 176 125 176C145.5 176 171.25 164.25 193.75 140.75L196.25 143.25C172.5 167.75 146.5 180 123 180C111.25 180 96.5 178 79.75 173.5ZM173 90.5C238.5 63.75 270.75 30.5 270.75 12.75C270.75 6.49999 267.5 3.5 261.25 3.5C237.25 3.5 211.25 33.75 173 90.5ZM74.75 171.75C55 165.5 37.75 162.5 23.75 162.5C11.5 162.5 3.75 165.5 3.75 168.75C3.75 172.75 16.25 177.75 37.5 177.75C50.25 177.75 62.25 175.5 74.75 171.75ZM220.17 168.5C210.67 176.75 202.17 181 194.17 181C185.17 181 179.92 176.25 179.92 168C179.92 159.75 184.42 149.75 193.67 140.25C205.92 127.75 220.67 121.25 230.42 121.25C238.42 121.25 242.67 125 242.67 132.75V134.75L251.17 122.5L263.17 120.25C240.67 151.5 227.92 168 227.92 172.25C227.92 174.5 229.17 175.5 232.17 175.5C239.42 175.5 258.17 165.25 280.67 141.75L283.42 143.75C259.92 168.5 239.67 179.75 228.92 179.75C222.92 179.75 219.67 177 219.67 171.75C219.67 170.75 219.92 169.75 220.17 168.5ZM195.17 177.5C198.92 177.5 204.42 175.5 210.17 171.75C228.42 159.75 238.92 141.75 238.92 132.5C238.92 127.5 236.17 124.75 231.67 124.75C225.92 124.75 218.67 129.25 209.42 138C194.67 152 187.42 164.75 187.42 171.25C187.42 175 190.17 177.5 195.17 177.5ZM379.367 141.75L382.117 143.75C358.117 169 335.367 181 321.867 181C311.117 181 304.867 175.5 304.867 167.5C304.867 159.75 311.367 148.5 324.117 137.5C336.617 126.75 348.617 121.25 357.867 121.25C365.617 121.25 370.367 125.75 370.367 131.5C370.367 134.75 367.117 138 362.867 138C359.617 138 357.117 135.75 357.117 133.25C357.117 129 361.617 128.5 361.617 127C361.617 125.75 360.117 124.5 357.617 124.5C351.117 124.5 339.867 132.75 326.117 149.25C318.617 158.25 314.617 164.75 314.617 170.25C314.617 174.5 317.617 177.25 322.367 177.25C334.617 177.25 356.367 166 379.367 141.75ZM406.938 168.5C397.438 176.75 388.938 181 380.938 181C371.937 181 366.687 176.25 366.687 168C366.687 159.75 371.187 149.75 380.438 140.25C392.688 127.75 407.438 121.25 417.188 121.25C425.188 121.25 429.438 125 429.438 132.75V134.75L437.938 122.5L449.938 120.25C427.438 151.5 414.688 168 414.688 172.25C414.688 174.5 415.938 175.5 418.938 175.5C426.188 175.5 444.938 165.25 467.438 141.75L470.188 143.75C446.688 168.5 426.438 179.75 415.688 179.75C409.688 179.75 406.438 177 406.438 171.75C406.438 170.75 406.688 169.75 406.938 168.5ZM381.938 177.5C385.688 177.5 391.188 175.5 396.938 171.75C415.188 159.75 425.688 141.75 425.688 132.5C425.688 127.5 422.938 124.75 418.438 124.75C412.688 124.75 405.438 129.25 396.188 138C381.438 152 374.187 164.75 374.187 171.25C374.187 175 376.937 177.5 381.938 177.5ZM490.078 121.5C495.078 116 498.328 112.5 498.328 109C498.328 107 497.078 106 495.578 106C491.828 106 489.578 109.5 489.578 115.25C489.578 117.25 489.828 119.25 490.078 121.5ZM486.578 124.25C486.328 121.5 486.078 118.5 486.078 115.5C486.078 107.5 490.578 102.5 495.578 102.5C499.328 102.5 501.828 105 501.828 109C501.828 114.5 497.828 119 490.828 125.25C491.578 130.5 492.328 135.25 492.328 139.75C492.328 152.75 488.578 163 482.328 169H482.828C494.078 169 508.578 160 525.328 141.75L527.828 143.75C510.078 163 495.078 172.75 481.078 172.75H479.078C473.078 178.25 466.078 181 459.328 181C448.828 181 441.578 174.25 441.578 167C441.578 163 444.078 160.5 447.828 160.5C451.078 160.5 453.578 162.5 453.578 165.5C453.578 168.5 451.828 170.5 448.078 171.5C449.328 175 452.578 177 456.328 177C467.328 177 486.828 156.75 486.828 128.25C480.078 134.5 473.828 140.25 468.328 146L465.578 143.75C471.328 138 478.328 131.25 486.578 124.25ZM552.689 168.5C543.189 176.75 534.689 181 526.689 181C517.689 181 512.439 176.25 512.439 168C512.439 159.75 516.939 149.75 526.189 140.25C538.439 127.75 553.189 121.25 562.939 121.25C570.939 121.25 575.189 125 575.189 132.75V134.75L583.689 122.5L595.689 120.25C573.189 151.5 560.439 168 560.439 172.25C560.439 174.5 561.689 175.5 564.689 175.5C571.939 175.5 590.689 165.25 613.189 141.75L615.939 143.75C592.439 168.5 572.189 179.75 561.439 179.75C555.439 179.75 552.189 177 552.189 171.75C552.189 170.75 552.439 169.75 552.689 168.5ZM527.689 177.5C531.439 177.5 536.939 175.5 542.689 171.75C560.939 159.75 571.439 141.75 571.439 132.5C571.439 127.5 568.689 124.75 564.189 124.75C558.439 124.75 551.189 129.25 541.939 138C527.189 152 519.939 164.75 519.939 171.25C519.939 175 522.689 177.5 527.689 177.5ZM626.387 172.25L631.387 165.5C642.137 174 657.387 178.75 674.887 178.75C713.137 178.75 742.137 158.25 774.887 117.5C765.887 111.25 761.387 103 761.387 92.5C761.387 70.75 781.387 45.5 820.887 25.5C816.137 24.5 811.637 23.75 806.887 23.75C780.137 23.75 752.887 36.25 726.637 60.75L723.637 58.5C750.137 33.25 778.387 20.5 806.387 20.5C813.137 20.5 819.637 21.25 826.137 23C846.637 12.75 869.137 4.99999 894.137 1.99999L895.887 4.5C869.387 20.25 854.637 32.75 847.887 40.5C851.137 47 852.637 53.25 852.637 59.75C852.637 72.5 844.887 90.25 829.137 105C817.387 116 804.387 121.5 789.637 121.5C789.137 121.5 787.637 121.5 785.137 121.25C754.637 162.75 718.637 182.25 671.637 182.25C655.137 182.25 640.637 179.25 626.387 172.25ZM777.387 114.75C801.387 87.5 819.637 60.25 842.637 38.75C837.887 33.5 833.387 29.75 827.387 27.5C787.387 50.5 768.387 80.75 768.387 98C768.387 105.5 770.887 110.5 777.387 114.75ZM788.137 118H790.137C802.387 118 814.137 113.5 824.887 104.25C840.387 91 849.137 71.75 849.137 59.5C849.137 53.75 847.887 48 845.137 42.5C820.637 68.25 805.887 96 788.137 118ZM831.137 25.25C836.637 28 840.887 31.25 845.137 36.25C853.887 28 867.387 17.25 888.137 5.99999C868.387 9.25 849.637 15.5 831.137 25.25ZM822.871 178.5C844.621 150.5 856.621 135.75 856.621 131C856.621 129.25 855.371 128 853.621 128C849.621 128 842.371 134.25 831.121 146L828.371 143.75C841.371 130 850.871 122.25 859.371 122.25C863.621 122.25 866.121 124.75 866.121 128.75C866.121 131.25 863.871 136.75 859.121 144.25C876.871 128.25 890.871 121.25 897.621 121.25C904.371 121.25 908.371 125 908.371 131.25C908.371 135.75 903.871 142.25 896.121 152.25C887.621 163.25 882.621 169.75 882.621 173C882.621 175.25 884.121 176.5 886.871 176.5C896.121 176.5 910.621 164.75 931.371 141.75L934.121 143.75C912.371 168 896.121 181 884.121 181C877.121 181 873.871 178 873.871 172.5C873.871 168.5 877.121 162.5 883.871 154C893.621 141.75 899.371 134 899.371 129.25C899.371 127.5 897.871 126 895.871 126C885.621 126 861.621 142 833.621 178.5H822.871ZM988.939 153.5C972.189 172 956.439 181 945.689 181C937.189 181 932.189 176.75 932.189 170.75C932.189 166 937.939 158.75 946.939 146.75C953.189 138.75 957.189 133.75 957.189 130C957.189 128.25 956.439 127.25 954.939 127.25C950.939 127.25 943.689 134 932.439 146L929.689 143.75C942.939 129.75 950.439 121.25 958.439 121.25C963.189 121.25 966.439 124.5 966.439 130C966.439 136.75 959.189 145.25 949.689 157.5C944.189 164.5 940.939 168.75 940.939 172.25C940.939 175 942.939 177 946.689 177C956.939 177 970.689 168.5 986.189 151.25C984.189 148.5 983.689 146 983.689 142.5C983.689 133.75 992.689 123 999.189 123C1002.94 123 1005.19 125.25 1005.19 129.25C1005.19 135.75 999.939 141.75 991.689 151C994.189 152.5 996.439 153 998.939 153C1004.69 153 1011.44 149.25 1017.69 141.75L1020.44 143.75C1013.44 152 1005.94 156.25 998.689 156.25C995.439 156.25 992.189 155.25 988.939 153.5ZM988.939 149C997.189 140.25 1001.44 134 1001.44 130C1001.44 127.75 1000.44 126.5 998.689 126.5C993.939 126.5 986.939 135.75 986.939 143C986.939 145.25 987.439 147.25 988.939 149ZM1081.62 143.75C1057.37 169.75 1030.87 181 1017.37 181C1008.37 181 1004.12 177 1004.12 169C1004.12 161.75 1008.62 151.5 1018.12 141C1030.12 127.75 1044.87 121.25 1053.12 121.25C1060.37 121.25 1064.37 124.5 1064.37 129.25C1064.37 139.25 1047.37 154 1015.62 160.75C1012.37 165.25 1010.62 169 1010.62 171.5C1010.62 175.25 1013.37 177 1018.37 177C1031.12 177 1056.12 166 1078.87 141.75L1081.62 143.75ZM1017.87 157C1046.62 149.5 1060.62 136.75 1060.62 129.25C1060.62 126.75 1058.87 125.25 1056.37 125.25C1048.87 125.25 1034.87 135.75 1017.87 157ZM1101.65 121.5C1106.65 116 1109.9 112.5 1109.9 109C1109.9 107 1108.65 106 1107.15 106C1103.4 106 1101.15 109.5 1101.15 115.25C1101.15 117.25 1101.4 119.25 1101.65 121.5ZM1098.15 124.25C1097.9 121.5 1097.65 118.5 1097.65 115.5C1097.65 107.5 1102.15 102.5 1107.15 102.5C1110.9 102.5 1113.4 105 1113.4 109C1113.4 114.5 1109.4 119 1102.4 125.25C1103.15 130.5 1103.9 135.25 1103.9 139.75C1103.9 152.75 1100.15 163 1093.9 169H1094.4C1105.65 169 1120.15 160 1136.9 141.75L1139.4 143.75C1121.65 163 1106.65 172.75 1092.65 172.75H1090.65C1084.65 178.25 1077.65 181 1070.9 181C1060.4 181 1053.15 174.25 1053.15 167C1053.15 163 1055.65 160.5 1059.4 160.5C1062.65 160.5 1065.15 162.5 1065.15 165.5C1065.15 168.5 1063.4 170.5 1059.65 171.5C1060.9 175 1064.15 177 1067.9 177C1078.9 177 1098.4 156.75 1098.4 128.25C1091.65 134.5 1085.4 140.25 1079.9 146L1077.15 143.75C1082.9 138 1089.9 131.25 1098.15 124.25ZM1189.26 69.75L1200.51 68.5L1173.01 106.25H1185.76L1184.01 110.25H1169.76C1140.26 149.75 1124.26 170.5 1124.26 174C1124.26 176 1125.51 177 1126.76 177C1138.51 177 1160.01 166 1182.51 141.75L1185.26 143.75C1161.76 169.25 1138.26 181 1125.76 181C1119.76 181 1117.01 178.5 1117.01 173.75C1117.01 167.25 1132.76 147.5 1159.76 110.25H1148.51L1150.51 106.25H1163.01L1189.26 69.75Z" fill="#213131"></path></svg> 