<?xml version="1.0" encoding="UTF-8"?> <svg xmlns="http://www.w3.org/2000/svg" width="150" height="150" viewBox="0 0 100 100" style="vertical-align:baseline;position: absolute;z-index: -1;"><metadata></metadata><defs><style> .cls-1 { fill: #1771f1; fill-rule: evenodd; transition:.15s; } .dark-horizontal .cls-1 { fill: #ffb62a; fill-rule: evenodd; } </style></defs><path class="cls-1" d="M89.382,18.756L55,0H45.125L10.659,18.527a4.334,4.334,0,0,0-3.033,4.089L7.5,75.692a4.088,4.088,0,0,0,2.353,3.823L48.728,99.789a3.977,3.977,0,0,0,2.545,0L90.147,79.536A4.088,4.088,0,0,0,92.5,75.713l0.125-52.847C92.625,21.6,91.963,20.019,89.382,18.756ZM17.5,72.591V29.162l9.75,3.379V66.708L50,78.223,72.75,66.708V32.04L55,22.779V45.056l-9.875,2.128V-9.387l4.77-.126L55-9.762v21.4L82.625,26.158V72.591L50,89.237Z" style="stroke-dasharray: 769.455, 769.455;stroke-dashoffset: 769.455;fill: #000;"></path></svg> 