<?xml version="1.0" encoding="UTF-8"?> <svg xmlns="http://www.w3.org/2000/svg" width="532" height="41" viewBox="0 0 532 41" fill="none"><path d="M9.825 18.925V35.8C9.825 37.6 10.725 38.725 12.3 39.175C13.05 39.175 13.725 39.1 14.325 39.025V39.85C13.725 39.925 13.2 40 12.525 40C11.7 40 8.85 39.625 7.2 39.625C6.075 39.625 3.6 40 2.625 40C2.025 40 1.575 40 0.825 39.85V38.95C1.425 39.025 1.875 39.1 2.4 39.1C3 39.1 3.6 39.025 4.2 38.95C5.55 37.525 5.85 36.775 5.85 34.3V5.275C5.85 3.7 5.7 1.6 3.075 1.6C2.55 1.6 1.95 1.675 1.5 1.675V0.775C2.4 0.699996 2.4 0.699996 3.525 0.699996C4.2 0.699996 7.2 0.924998 7.8 0.924998L13.725 0.699996C14.7 0.699996 15.825 0.624997 16.725 0.624997C24 0.624997 28.575 4.6 28.575 10.375C28.575 15.175 24.45 19.3 16.95 19.75C19.875 23.05 20.4 23.875 24.75 31.15C27.15 35.125 29.775 39.55 33.225 39.55C34.2 39.55 34.65 39.325 35.55 38.95V39.55C34.5 40 33.6 40.3 31.125 40.3C26.475 40.3 24.6 38.35 18.975 28.675C17.7 26.5 14.025 20.575 12.825 19.9C12.375 19.675 10.2 19.15 9.825 18.925ZM9.825 4.3V17.5C11.175 18.25 12.525 19 15.45 19C19.125 19 24.075 16.525 24.075 10.75C24.075 8.425 22.725 1.975 14.325 1.975C9.825 1.975 9.825 3.025 9.825 4.3ZM60.9416 14.575H60.4916C60.0416 9.4 51.7166 9.175 49.9916 9.175C48.7166 9.175 48.1166 9.4 47.3666 9.775C47.2166 10.15 46.9916 10.525 46.9916 10.9V22H51.5666C53.5916 22 55.8416 22 55.8416 19.825C55.8416 19.225 55.6166 18.625 55.3916 18.025C55.5416 17.95 55.7666 17.95 55.9166 17.875C56.1416 18.175 56.3666 18.4 56.5166 19.075C56.7416 19.975 56.5916 21.4 56.7416 22.3C56.8166 22.975 57.9416 25.825 57.9416 26.35V27.4H57.4166C56.5166 23.8 54.7166 23.575 46.9916 23.575V36.85C46.9916 38.5 48.1166 38.5 50.2916 38.5C53.8916 38.5 61.8416 38.5 62.9666 33.025H63.4916C63.4166 34.9 63.1916 35.2 61.6166 37.45C60.4166 39.1 60.2666 39.325 59.8166 40.375C58.9916 40.225 58.2416 40.15 57.4916 40.075C56.5166 40 53.5916 40 52.2416 40C49.7666 40 47.2166 39.85 44.7416 39.85C43.3916 39.85 42.0416 40 40.6916 40C39.0416 40 38.8916 40 38.2916 39.925V39.1C38.8166 39.175 39.1916 39.25 39.7166 39.25C42.7916 39.25 43.1666 37.525 43.1666 35.125V12.025C43.1666 10 42.8666 8.725 40.7666 8.725L38.6666 8.875V7.975L39.7916 7.9C41.3666 7.825 48.1166 7.975 49.5416 7.975C55.9166 7.975 56.2916 7.9 58.9166 7.525C59.1416 8.35 60.7916 12.55 60.7916 12.625C60.9416 13.225 60.9416 13.9 60.9416 14.575ZM66.5836 39.925V39.25C66.9586 39.25 67.3336 39.325 67.7086 39.325C68.0836 39.325 68.8336 39.25 68.9086 39.175C68.9836 39.1 70.0336 38.35 70.1086 38.2C70.7086 37.3 71.5336 36.1 71.8336 35.275L82.2586 7.675H83.0836L93.5086 34C94.7086 37 95.1586 37.825 95.9836 39.025C96.0586 39.175 97.1086 39.25 97.4836 39.25C97.8586 39.25 98.6836 39.025 98.9086 39.025V39.85C98.4586 39.925 98.0086 40 97.4086 40C96.7336 40 94.5586 39.7 92.9086 39.7C91.1836 39.7 89.6836 40 88.6336 40C88.1836 40 87.8086 40 87.2836 39.925V39.1C87.7336 39.175 88.2586 39.25 88.6336 39.25C88.9336 39.25 89.4586 39.175 89.7586 39.1C90.1336 39.025 90.6586 38.425 90.6586 37.45C90.6586 36.7 90.4336 36.1 90.2836 35.725L86.2336 25.675H76.8586L73.5586 34.525C73.1836 35.575 73.0336 36.475 73.0336 37C73.0336 38.05 73.4836 39.325 74.9086 39.325C75.4336 39.325 75.9586 39.25 76.4836 39.25V39.925C76.1086 40 75.6586 40 75.2086 40C74.0086 40 72.2836 39.85 71.1586 39.85C69.7336 39.85 68.6086 40 67.8586 40C67.1836 40 66.9586 40 66.5836 39.925ZM77.4586 24.475H85.7836L81.4336 13.675L77.4586 24.475ZM116.409 38.875C120.234 38.875 122.334 38.05 124.059 37.3C125.409 36.7 126.759 36.025 127.209 35.5C128.184 34.375 128.634 33.25 128.634 32.2H129.309C129.009 34.6 127.959 36.475 127.659 36.775C127.209 37.3 125.934 39.1 125.334 40.15C122.034 40.075 111.609 39.85 109.209 39.85C108.384 39.85 107.184 39.925 106.059 40C105.009 40.075 104.034 40.15 103.659 40.15C103.434 40.15 103.134 40.075 102.909 40.075V39.325C103.359 39.325 103.809 39.4 104.259 39.4C104.559 39.4 105.609 39.25 105.684 39.175C107.409 38.2 107.409 36.775 107.409 34.75V13.45C107.409 11.35 107.184 10.45 105.834 8.95C105.384 8.875 104.859 8.875 104.409 8.875C103.734 8.875 103.209 8.95 102.534 9.025V8.35C103.059 8.275 103.659 8.125 104.784 8.125C105.759 8.125 107.859 8.5 108.984 8.5C109.809 8.5 112.134 8.125 114.084 8.125C114.609 8.125 114.834 8.125 115.359 8.2V8.875C114.909 8.875 114.384 8.8 113.934 8.8C111.759 8.8 111.009 10.45 111.009 12.175V36.175C111.009 38.425 113.634 38.875 116.409 38.875ZM176.884 14.575H176.434C175.984 9.4 167.659 9.175 165.934 9.175C164.659 9.175 164.059 9.4 163.309 9.775C163.159 10.15 162.934 10.525 162.934 10.9V22H167.509C169.534 22 171.784 22 171.784 19.825C171.784 19.225 171.559 18.625 171.334 18.025C171.484 17.95 171.709 17.95 171.859 17.875C172.084 18.175 172.309 18.4 172.459 19.075C172.684 19.975 172.534 21.4 172.684 22.3C172.759 22.975 173.884 25.825 173.884 26.35V27.4H173.359C172.459 23.8 170.659 23.575 162.934 23.575V36.85C162.934 38.5 164.059 38.5 166.234 38.5C169.834 38.5 177.784 38.5 178.909 33.025H179.434C179.359 34.9 179.134 35.2 177.559 37.45C176.359 39.1 176.209 39.325 175.759 40.375C174.934 40.225 174.184 40.15 173.434 40.075C172.459 40 169.534 40 168.184 40C165.709 40 163.159 39.85 160.684 39.85C159.334 39.85 157.984 40 156.634 40C154.984 40 154.834 40 154.234 39.925V39.1C154.759 39.175 155.134 39.25 155.659 39.25C158.734 39.25 159.109 37.525 159.109 35.125V12.025C159.109 10 158.809 8.725 156.709 8.725L154.609 8.875V7.975L155.734 7.9C157.309 7.825 164.059 7.975 165.484 7.975C171.859 7.975 172.234 7.9 174.859 7.525C175.084 8.35 176.734 12.55 176.734 12.625C176.884 13.225 176.884 13.9 176.884 14.575ZM185.451 29.5L186.051 29.575C185.826 30.175 185.676 30.85 185.676 31.525C185.676 33.775 189.051 39.25 194.676 39.25C199.101 39.25 201.351 35.95 201.351 32.725C201.351 29.2 199.251 27.4 195.126 23.95C189.276 19 187.701 17.65 187.701 14.275C187.701 13.6 187.851 7.825 194.901 7.825C196.476 7.825 197.901 8.05 200.001 8.8L201.876 9.475C201.726 10.6 201.726 10.675 201.726 11.575L201.801 14.05C201.801 15.025 201.651 15.475 201.276 16.3L200.676 16.075C200.901 15.55 201.126 15.025 201.126 14.5C201.126 13.75 199.926 9.025 195.201 9.025C192.801 9.025 190.626 10.225 190.626 12.7C190.626 15.25 192.426 16.675 196.176 19.825C202.776 25.3 204.801 27.7 204.801 31.825C204.801 37.825 199.326 40.375 195.426 40.375C192.651 40.375 192.426 40.3 185.526 37.675C185.151 35.125 185.001 33.625 185.001 33.25C185.001 30.925 185.001 30.7 185.451 29.5ZM221.268 32.8V12.25C221.268 10 221.268 9.4 218.343 9.4C212.418 9.4 210.693 12.25 209.643 14.05C209.493 13.975 209.343 13.75 209.193 13.675C210.168 11.95 211.068 10.45 211.368 9.775C211.668 9.175 212.043 8.275 212.268 7.675C212.568 7.6 212.868 7.6 213.093 7.6C213.318 7.6 216.468 7.975 217.143 7.975C218.568 8.05 222.318 8.2 224.118 8.2C224.868 8.2 227.343 8.125 228.468 8.05L232.443 7.675C234.918 7.675 235.593 8.5 235.593 10.225C235.593 11.05 234.768 12.55 232.893 14.725L232.368 14.5C233.268 13.15 233.643 12.625 233.643 11.725C233.643 9.475 231.018 9.475 227.718 9.475C225.168 9.475 225.093 10.15 225.093 10.9V34.6C225.093 38.35 226.668 39.25 227.643 39.25L229.593 39.175V39.925C228.318 40 228.318 40 227.343 40C226.293 40 223.818 39.7 222.843 39.7C221.868 39.7 219.468 40 218.943 40H216.393V39.175C216.918 39.25 217.293 39.25 217.818 39.25C218.268 39.25 218.793 39.25 219.318 39.175C220.668 37.6 221.268 37 221.268 32.8ZM238.044 39.925V39.25C238.419 39.25 238.794 39.325 239.169 39.325C239.544 39.325 240.294 39.25 240.369 39.175C240.444 39.1 241.494 38.35 241.569 38.2C242.169 37.3 242.994 36.1 243.294 35.275L253.719 7.675H254.544L264.969 34C266.169 37 266.619 37.825 267.444 39.025C267.519 39.175 268.569 39.25 268.944 39.25C269.319 39.25 270.144 39.025 270.369 39.025V39.85C269.919 39.925 269.469 40 268.869 40C268.194 40 266.019 39.7 264.369 39.7C262.644 39.7 261.144 40 260.094 40C259.644 40 259.269 40 258.744 39.925V39.1C259.194 39.175 259.719 39.25 260.094 39.25C260.394 39.25 260.919 39.175 261.219 39.1C261.594 39.025 262.119 38.425 262.119 37.45C262.119 36.7 261.894 36.1 261.744 35.725L257.694 25.675H248.319L245.019 34.525C244.644 35.575 244.494 36.475 244.494 37C244.494 38.05 244.944 39.325 246.369 39.325C246.894 39.325 247.419 39.25 247.944 39.25V39.925C247.569 40 247.119 40 246.669 40C245.469 40 243.744 39.85 242.619 39.85C241.194 39.85 240.069 40 239.319 40C238.644 40 238.419 40 238.044 39.925ZM248.919 24.475H257.244L252.894 13.675L248.919 24.475ZM283.744 32.8V12.25C283.744 10 283.744 9.4 280.819 9.4C274.894 9.4 273.169 12.25 272.119 14.05C271.969 13.975 271.819 13.75 271.669 13.675C272.644 11.95 273.544 10.45 273.844 9.775C274.144 9.175 274.519 8.275 274.744 7.675C275.044 7.6 275.344 7.6 275.569 7.6C275.794 7.6 278.944 7.975 279.619 7.975C281.044 8.05 284.794 8.2 286.594 8.2C287.344 8.2 289.819 8.125 290.944 8.05L294.919 7.675C297.394 7.675 298.069 8.5 298.069 10.225C298.069 11.05 297.244 12.55 295.369 14.725L294.844 14.5C295.744 13.15 296.119 12.625 296.119 11.725C296.119 9.475 293.494 9.475 290.194 9.475C287.644 9.475 287.569 10.15 287.569 10.9V34.6C287.569 38.35 289.144 39.25 290.119 39.25L292.069 39.175V39.925C290.794 40 290.794 40 289.819 40C288.769 40 286.294 39.7 285.319 39.7C284.344 39.7 281.944 40 281.419 40H278.869V39.175C279.394 39.25 279.769 39.25 280.294 39.25C280.744 39.25 281.269 39.25 281.794 39.175C283.144 37.6 283.744 37 283.744 32.8ZM325.419 14.575H324.969C324.519 9.4 316.194 9.175 314.469 9.175C313.194 9.175 312.594 9.4 311.844 9.775C311.694 10.15 311.469 10.525 311.469 10.9V22H316.044C318.069 22 320.319 22 320.319 19.825C320.319 19.225 320.094 18.625 319.869 18.025C320.019 17.95 320.244 17.95 320.394 17.875C320.619 18.175 320.844 18.4 320.994 19.075C321.219 19.975 321.069 21.4 321.219 22.3C321.294 22.975 322.419 25.825 322.419 26.35V27.4H321.894C320.994 23.8 319.194 23.575 311.469 23.575V36.85C311.469 38.5 312.594 38.5 314.769 38.5C318.369 38.5 326.319 38.5 327.444 33.025H327.969C327.894 34.9 327.669 35.2 326.094 37.45C324.894 39.1 324.744 39.325 324.294 40.375C323.469 40.225 322.719 40.15 321.969 40.075C320.994 40 318.069 40 316.719 40C314.244 40 311.694 39.85 309.219 39.85C307.869 39.85 306.519 40 305.169 40C303.519 40 303.369 40 302.769 39.925V39.1C303.294 39.175 303.669 39.25 304.194 39.25C307.269 39.25 307.644 37.525 307.644 35.125V12.025C307.644 10 307.344 8.725 305.244 8.725L303.144 8.875V7.975L304.269 7.9C305.844 7.825 312.594 7.975 314.019 7.975C320.394 7.975 320.769 7.9 323.394 7.525C323.619 8.35 325.269 12.55 325.269 12.625C325.419 13.225 325.419 13.9 325.419 14.575ZM381.469 33.7V28.75C381.469 26.425 379.819 26.35 378.994 26.35C378.469 26.35 377.944 26.425 377.419 26.575V25.75C377.869 25.675 378.094 25.6 378.994 25.6C379.669 25.6 382.444 25.9 383.044 25.9C383.719 25.9 386.494 25.6 387.094 25.6C387.844 25.6 388.294 25.675 388.894 25.825V26.575C388.294 26.425 387.919 26.35 387.244 26.35C385.294 26.35 385.294 29.425 385.294 31.225V33.7C385.294 34.375 385.444 35.05 385.519 35.5C383.344 37.375 379.819 40.375 372.169 40.375C360.244 40.375 355.069 31.525 355.069 24.4C355.069 21.1 356.119 18.4 356.644 17.275C358.969 12.25 364.819 7.675 371.869 7.675C376.219 7.675 379.744 9.7 381.844 9.7C382.669 9.7 383.044 9.325 383.269 9.1H383.494C383.494 10.975 384.469 13.6 384.469 15.55C384.469 16.675 384.319 17.425 384.094 18.1H383.419C383.569 17.575 383.719 17.125 383.719 16.525C383.719 14.2 379.144 9.1 372.694 9.1C366.769 9.1 359.344 12.7 359.344 23.8C359.344 29.8 363.319 39.25 372.694 39.25C377.044 39.25 381.469 37.075 381.469 33.7ZM398.986 35.575V12.4C398.986 10.675 398.461 9.7 397.786 9.25C397.111 8.875 395.836 8.875 395.461 8.875C395.236 8.875 394.861 8.875 394.486 8.95V8.275C394.786 8.2 395.086 8.125 395.461 8.125C396.511 8.125 398.986 8.575 400.336 8.5L404.161 8.275C405.661 8.2 407.986 8.05 408.736 8.05C410.686 8.05 418.261 8.125 418.261 15.7C418.261 20.2 414.661 22.975 408.886 23.5V23.65C409.486 23.95 409.786 24.1 410.311 24.925L417.211 35.425C419.311 38.575 421.486 39.475 423.436 39.475C423.961 39.475 424.711 39.25 425.011 39.025C425.086 39.175 425.086 39.475 425.161 39.7C424.561 39.925 423.361 40.225 420.886 40.225C418.786 40.225 416.236 40.225 413.311 35.65L407.011 25.675C406.711 25.225 405.511 23.8 404.986 23.575C404.611 23.425 402.886 23.2 402.586 23.05V33.7C402.586 36.775 402.661 39.4 405.286 39.4C405.811 39.4 406.261 39.325 406.786 39.325V40.075C405.811 40.225 405.661 40.225 405.286 40.225C404.986 40.225 404.536 40.15 403.936 40.075C403.411 40 402.736 39.925 401.161 39.85C400.411 39.85 399.286 39.925 398.461 40C397.711 40.075 397.186 40.15 396.736 40.15C395.836 40.15 395.236 40.15 394.636 40.075V39.325C395.161 39.4 395.761 39.4 396.136 39.4C396.736 39.4 397.261 39.325 397.936 39.1C398.986 37.9 398.986 37.45 398.986 35.575ZM402.586 11.05V21.775C403.786 22.15 404.686 22.45 406.486 22.45C410.836 22.45 414.286 20.425 414.286 16C414.286 9.475 407.611 9.475 404.461 9.475C403.486 9.475 402.586 9.775 402.586 11.05ZM428.678 25.525C428.678 18.025 433.328 7.675 446.228 7.675C458.228 7.675 463.778 15.475 463.778 22.6C463.778 30.1 459.128 40.45 446.228 40.45C434.228 40.45 428.678 32.65 428.678 25.525ZM432.128 22.375C432.128 30.7 438.278 39.1 447.128 39.1C454.253 39.1 459.953 34.45 459.953 25.9C459.953 17.575 453.803 9.175 444.953 9.175C437.828 9.175 432.128 13.825 432.128 22.375ZM468.211 9.025V8.35C468.436 8.275 468.811 8.2 469.036 8.2L470.761 8.125C471.361 8.125 473.836 8.5 474.286 8.5C475.036 8.5 478.411 8.125 479.086 8.125C480.586 8.125 481.036 8.275 481.411 8.425V9.1C480.886 8.95 480.436 8.875 479.686 8.875C477.961 8.875 476.761 11.5 476.761 13.075V29.125C476.761 33.25 479.236 39.025 486.736 39.025C497.236 39.025 497.236 30.025 497.236 27.325V15.175C497.236 12.25 496.561 8.95 493.336 8.95C493.036 8.95 492.736 8.95 492.361 9.025V8.35C492.811 8.2 493.261 8.125 493.711 8.125C494.836 8.125 496.936 8.5 497.611 8.5C498.436 8.5 500.311 8.125 501.511 8.125C502.486 8.125 502.561 8.125 503.161 8.35V9.025C502.861 8.95 502.486 8.95 502.186 8.95C500.086 8.95 498.661 10.225 498.661 14.35V27.175C498.661 32.05 497.761 40.375 485.461 40.375C473.086 40.375 473.086 31.3 473.086 27.25L473.011 13.975C473.011 11.275 472.336 8.875 470.461 8.875C469.561 8.875 468.961 8.95 468.211 9.025ZM508.003 39.925V39.1C508.528 39.175 508.978 39.25 509.503 39.25C510.028 39.25 511.003 39.1 511.378 38.95C512.053 38.125 512.353 37.45 512.353 35.2V13.375C512.353 11.125 512.203 8.8 509.278 8.8C508.828 8.8 508.378 8.875 507.853 8.95V8.2C508.078 8.125 508.903 8.125 509.728 8.125C510.628 8.125 513.553 8.5 514.153 8.5C516.178 8.5 518.503 8.35 522.703 8.35C527.428 8.35 531.478 10.15 531.478 15.1C531.478 20.05 527.053 23.875 520.978 23.875C518.728 23.875 517.378 23.35 516.178 22.825V35.8C516.178 37.525 516.853 38.275 518.128 39.25C519.253 39.325 520.303 39.175 520.828 39.1V39.85C520.003 40 519.553 40 518.278 40C516.778 40 514.903 39.625 514.078 39.625C513.103 39.625 510.778 40 509.803 40C509.053 40 508.528 39.925 508.003 39.925ZM516.178 11.275V21.4C517.228 22 518.203 22.525 520.528 22.525C525.928 22.525 527.428 18.85 527.428 15.925C527.428 12.775 525.628 9.55 519.778 9.55C517.903 9.55 516.178 9.775 516.178 11.275Z" fill="#213131"></path></svg> 