<?xml version="1.0" encoding="UTF-8"?> <svg xmlns="http://www.w3.org/2000/svg" xmlns:xlink="http://www.w3.org/1999/xlink" version="1.1" width="512" height="512" x="0" y="0" viewBox="0 0 32 32" style="enable-background:new 0 0 512 512" xml:space="preserve" class=""><g><path d="M28 2.32H4c-1.65 0-3 1.35-3 3v16c0 1.65 1.35 3 3 3h14.58l6.43 5.15c.18.14.4.22.62.22.15 0 .3-.03.43-.1.35-.17.57-.52.57-.9v-4.37h1.36c1.65 0 3-1.35 3-3v-16c0-1.65-1.35-3-3-3zm1 19c0 .55-.45 1-1 1h-2.36c-.55 0-1 .45-1 1v3.29l-5.08-4.07c-.18-.14-.4-.22-.62-.22H4c-.55 0-1-.45-1-1v-16c0-.55.45-1 1-1h24c.55 0 1 .45 1 1z" fill="#f6f6f5" opacity="1" data-original="#000000" class=""></path><path d="M9.34 11.58a1.741 1.741 0 0 0 0 3.48 1.741 1.741 0 0 0 0-3.48zM16 11.58a1.741 1.741 0 0 0 0 3.48 1.741 1.741 0 0 0 0-3.48zM22.66 11.58a1.741 1.741 0 0 0 0 3.48 1.741 1.741 0 0 0 0-3.48z" fill="#f6f6f5" opacity="1" data-original="#000000" class=""></path></g></svg> 